<?xml version="1.0" encoding="UTF-8"?><svg id="Capa_2" xmlns="http://www.w3.org/2000/svg" viewBox="0 0 15.62 10.94"><defs><style>.cls-1{fill:#fff;}</style></defs><g id="Capa_1-2"><path class="cls-1" d="M12.38,0H3.24C1.45,0,0,1.44,0,3.21V7.73c0,1.77,1.45,3.21,3.24,3.21H12.38c1.79,0,3.24-1.44,3.24-3.21V3.21c0-1.77-1.45-3.21-3.24-3.21Zm-2.2,5.69l-4.27,2.01s-.05,.02-.08,.02-.06-.01-.09-.03c-.02-.01-.04-.03-.05-.06-.02-.02-.03-.05-.03-.08V3.39s.01-.05,.03-.08c.01-.02,.03-.05,.06-.06,.02-.02,.05-.03,.08-.03s.06,.01,.08,.02l4.28,2.14s.05,.04,.06,.07c.02,.02,.03,.06,.03,.09s-.01,.06-.03,.09c0,.02-.04,.05-.07,.06Z"/></g></svg>