<?xml version="1.0" encoding="UTF-8"?><svg id="Capa_2" xmlns="http://www.w3.org/2000/svg" viewBox="0 0 28.12 28.12"><defs><style>.cls-1{fill:#fff;}</style></defs><g id="Capa_1-2"><path class="cls-1" d="M23.99,4.1C21.25,1.38,17.91,0,14.06,0S6.82,1.38,4.1,4.1C1.38,6.82,0,10.17,0,14.06s1.38,7.19,4.1,9.93c2.72,2.74,6.07,4.13,9.96,4.13s7.2-1.39,9.93-4.13c2.74-2.74,4.13-6.08,4.13-9.93s-1.39-7.24-4.13-9.96Zm-2.21,17.68c-1.77,1.78-3.8,2.8-6.16,3.1v-7.69h3.13v-3.13h-3.13v-2.19c0-.12,.03-.24,.07-.36,.05-.11,.12-.21,.21-.3,.08-.09,.19-.16,.3-.2,.12-.05,.24-.08,.36-.08h2.19v-3.12h-2.19c-1.15,0-2.12,.43-2.9,1.28-.77,.86-1.16,1.9-1.16,3.14v1.83h-3.13v3.13h3.13v7.7c-2.38-.31-4.42-1.32-6.19-3.1-2.14-2.16-3.19-4.69-3.19-7.73s1.04-5.61,3.19-7.75c2.14-2.15,4.68-3.19,7.75-3.19s5.57,1.05,7.73,3.19c2.16,2.15,3.21,4.68,3.21,7.75s-1.05,5.56-3.22,7.72Z"/></g></svg>