<?xml version="1.0" encoding="UTF-8"?><svg id="Capa_2" xmlns="http://www.w3.org/2000/svg" viewBox="0 0 28.12 24.96"><defs><style>.cls-1{fill:#fff;}</style></defs><g id="Capa_1-2"><path class="cls-1" d="M14.06,0C6.25,0,0,5.55,0,12.48s6.25,12.48,14.06,12.48,14.06-5.55,14.06-12.48S21.88,0,14.06,0Zm0,9.71c1.72,0,3.13,1.24,3.13,2.77s-1.41,2.77-3.13,2.77-3.12-1.25-3.12-2.77,1.4-2.77,3.12-2.77Zm4.38-2.78c0-.97,.94-1.66,1.87-1.66s1.88,.83,1.88,1.66-.78,1.67-1.88,1.67-1.87-.7-1.87-1.67Zm-4.38,15.26c-6.09,0-10.94-4.3-10.94-9.71H7.81c0,3.05,2.81,5.55,6.25,5.55s6.25-2.5,6.25-5.55h4.69c0,5.41-4.84,9.71-10.94,9.71Z"/></g></svg>