<?xml version="1.0" encoding="UTF-8"?><svg id="Capa_2" xmlns="http://www.w3.org/2000/svg" viewBox="0 0 383 86"><defs><style>.cls-1{fill:#fff;}.cls-2{fill:#7bac51;}</style></defs><g id="Capa_1-2"><g><path class="cls-2" d="M0,15C0,6.72,6.72,0,15,0H368c8.28,0,15,6.72,15,15v56c0,8.28-6.72,15-15,15H15c-8.28,0-15-6.72-15-15V15Z"/><path class="cls-1" d="M331.26,44c.31,0,.6,.12,.81,.34,.21,.22,.33,.51,.33,.82v3.86c0,.3-.12,.6-.33,.82-.21,.21-.5,.33-.81,.33s-.59-.12-.8-.33-.34-.52-.34-.82v-3.86c0-.31,.12-.6,.34-.82,.21-.22,.5-.34,.8-.34Zm-7.26,3.04c.21-.22,.5-.34,.8-.34s.59,.12,.81,.34l2.66,2.7c.11,.11,.2,.24,.26,.38,.06,.14,.1,.29,.1,.45,0,.15-.03,.31-.08,.45-.06,.15-.15,.28-.25,.39-.11,.11-.24,.19-.38,.25-.14,.06-.3,.09-.45,.09-.15-.01-.3-.04-.44-.1-.14-.07-.27-.16-.37-.27l-2.66-2.7c-.22-.22-.34-.51-.34-.82s.12-.6,.34-.82Zm14.53,0c.21,.22,.33,.51,.33,.82s-.12,.6-.33,.82l-2.66,2.7c-.1,.11-.23,.2-.37,.27-.14,.06-.29,.09-.44,.1-.16,0-.31-.03-.45-.09-.14-.06-.27-.14-.38-.25s-.19-.24-.25-.39c-.06-.14-.09-.3-.08-.45,0-.16,.03-.31,.09-.45,.07-.14,.16-.27,.27-.38l2.66-2.7c.21-.22,.5-.34,.8-.34s.6,.12,.81,.34Zm-17.53,7.38c0-.31,.12-.6,.33-.82,.22-.22,.51-.34,.81-.34h3.8c.3,0,.59,.12,.81,.34,.21,.22,.33,.51,.33,.82s-.12,.6-.33,.82c-.22,.22-.51,.34-.81,.34h-3.8c-.3,0-.59-.12-.81-.34-.21-.22-.33-.51-.33-.82Zm12.43-.41c-1.3-1.13-3.31-.19-3.31,1.55v17.4c0,1.87,2.28,2.75,3.5,1.36l3.98-4.51c.42-.48,1.01-.76,1.63-.79l5.84-.23c1.82-.08,2.61-2.38,1.23-3.59l-12.87-11.19h0Zm-1.03,18.22v-16.06l11.88,10.33-5.14,.21c-.61,.02-1.22,.18-1.78,.44-.55,.27-1.05,.65-1.46,1.11l-3.5,3.97Z"/></g></g></svg>