<?xml version="1.0" encoding="UTF-8"?><svg id="Capa_2" xmlns="http://www.w3.org/2000/svg" viewBox="0 0 71 21.3"><defs><style>.cls-1{fill:#fff;}.cls-2{fill:#3c7c5b;}</style></defs><g id="Capa_1-2"><g><rect class="cls-1" width="71" height="21.3" rx="6" ry="6"/><path class="cls-2" d="M62.25,17.67c-.52,0-.96-.2-1.33-.59-.36-.39-.54-.86-.54-1.41,0-.08,0-.16,.01-.25,.01-.08,.03-.15,.05-.22l-4.41-2.73c-.18,.16-.37,.29-.59,.39-.22,.09-.45,.14-.69,.14-.52,0-.96-.19-1.33-.58-.36-.39-.54-.86-.54-1.42s.18-1.03,.54-1.42c.37-.39,.81-.58,1.33-.58,.24,0,.47,.05,.69,.14,.22,.1,.41,.23,.59,.39l4.41-2.73c-.02-.07-.04-.14-.05-.22-.01-.09-.01-.17-.01-.25,0-.55,.18-1.02,.54-1.41,.37-.39,.81-.59,1.33-.59s.96,.2,1.33,.59c.36,.39,.54,.86,.54,1.41s-.18,1.03-.54,1.42c-.37,.39-.81,.58-1.33,.58-.24,0-.47-.04-.69-.14-.22-.09-.41-.22-.59-.39l-4.41,2.73c.02,.07,.04,.15,.05,.23s.01,.16,.01,.24,0,.16-.01,.24c-.01,.09-.03,.16-.05,.23l4.41,2.73c.18-.17,.37-.3,.59-.39,.22-.1,.45-.14,.69-.14,.52,0,.96,.19,1.33,.58,.36,.39,.54,.86,.54,1.42s-.18,1.02-.54,1.41c-.37,.39-.81,.59-1.33,.59Z"/></g></g></svg>