<?xml version="1.0" encoding="UTF-8"?><svg id="Capa_2" xmlns="http://www.w3.org/2000/svg" viewBox="0 0 31.26 31.26"><defs><style>.cls-1{fill:#fff;}</style></defs><g id="Capa_1-2"><path class="cls-1" d="M15.63,28.13c3.32,0,6.49-1.32,8.84-3.66,2.34-2.35,3.66-5.52,3.66-8.84s-1.32-6.49-3.66-8.84c-2.35-2.34-5.52-3.66-8.84-3.66s-6.49,1.32-8.84,3.66c-2.34,2.35-3.66,5.52-3.66,8.84s1.32,6.49,3.66,8.84c2.35,2.34,5.52,3.66,8.84,3.66Zm0,3.13C7,31.26,0,24.26,0,15.63S7,0,15.63,0s15.63,7,15.63,15.63-7,15.63-15.63,15.63Z"/></g></svg>