<?xml version="1.0" encoding="UTF-8"?><svg id="Capa_2" xmlns="http://www.w3.org/2000/svg" viewBox="0 0 28.12 28.12"><defs><style>.cls-1{fill:#fff;}</style></defs><g id="Capa_1-2"><path class="cls-1" d="M10.99,19.22h-2.5V11.09h2.5v8.13Zm-1.25-9.17c-.91,0-1.36-.42-1.36-1.25,0-.17,.03-.33,.1-.49,.07-.15,.17-.28,.29-.4,.26-.24,.61-.37,.97-.36,.9,0,1.35,.42,1.35,1.25s-.45,1.25-1.35,1.25Zm10.52,9.17h-2.55v-4.54c0-1.17-.42-1.77-1.25-1.77-.66,0-1.1,.33-1.31,.99-.06,.11-.1,.32-.1,.63v4.69h-2.55v-5.52c0-1.25-.02-2.12-.05-2.61h2.18l.16,1.1c.57-.87,1.41-1.31,2.55-1.31,.87,0,1.57,.31,2.11,.91,.54,.61,.81,1.49,.81,2.64v4.79h0Zm-6.2,8.9C6.31,28.12,0,21.81,0,14.06S6.31,0,14.06,0s14.06,6.31,14.06,14.06-6.31,14.06-14.06,14.06Zm0-25C8.03,3.12,3.12,8.03,3.12,14.06s4.91,10.94,10.94,10.94,10.94-4.91,10.94-10.94S20.09,3.12,14.06,3.12Z"/></g></svg>