<svg xmlns="http://www.w3.org/2000/svg" viewBox="0 0 71 24"><defs><style>.cls-1{fill:#fff;}.cls-2{fill:#3c7c5b;}</style></defs><g id="Capa_2" data-name="Capa 2"><g id="Capa_1-2" data-name="Capa 1"><rect class="cls-1" width="71" height="24" rx="6"/><path class="cls-2" d="M10.26,18.12A7.33,7.33,0,0,1,8,17.76a4.76,4.76,0,0,1-1.72-1l.55-1.17a4.87,4.87,0,0,0,1.53.87,5.55,5.55,0,0,0,1.94.35,4.09,4.09,0,0,0,1.48-.22,1.72,1.72,0,0,0,.84-.57,1.4,1.4,0,0,0,.27-.84,1.15,1.15,0,0,0-.36-.87,2.42,2.42,0,0,0-.91-.52,9,9,0,0,0-1.23-.36c-.45-.1-.91-.21-1.37-.35a6,6,0,0,1-1.24-.52,2.59,2.59,0,0,1-.9-.84,2.52,2.52,0,0,1-.35-1.38A2.74,2.74,0,0,1,6.91,8.9,3,3,0,0,1,8.23,7.8a5.4,5.4,0,0,1,2.28-.42,7.05,7.05,0,0,1,1.82.24,5.06,5.06,0,0,1,1.56.69l-.5,1.2A4.41,4.41,0,0,0,12,8.87a5.07,5.07,0,0,0-1.46-.22,4,4,0,0,0-1.45.23,1.82,1.82,0,0,0-.84.6,1.46,1.46,0,0,0-.26.84,1.18,1.18,0,0,0,.35.89,2.75,2.75,0,0,0,.91.52c.38.13.8.25,1.25.36s.9.22,1.35.35a5.54,5.54,0,0,1,1.24.5,2.66,2.66,0,0,1,.92.84,2.41,2.41,0,0,1,.34,1.35,2.72,2.72,0,0,1-.43,1.49,3.08,3.08,0,0,1-1.35,1.1A5.58,5.58,0,0,1,10.26,18.12ZM20.33,10a3.71,3.71,0,0,1,1.71.38,2.68,2.68,0,0,1,1.17,1.14,4,4,0,0,1,.42,1.93V18H22.19V13.59a2.4,2.4,0,0,0-.57-1.74A2.08,2.08,0,0,0,20,11.26a2.93,2.93,0,0,0-1.33.3,2.12,2.12,0,0,0-.89.89,3.17,3.17,0,0,0-.3,1.45V18H16.08V6.87h1.44v5.32l-.28-.57a2.75,2.75,0,0,1,1.2-1.21A3.94,3.94,0,0,1,20.33,10ZM31,18V16.32L30.93,16V13.14a1.82,1.82,0,0,0-.54-1.41,2.2,2.2,0,0,0-1.59-.51,4.09,4.09,0,0,0-1.38.24,3.29,3.29,0,0,0-1.14.62L25.68,11a4.63,4.63,0,0,1,1.47-.75A6.06,6.06,0,0,1,29,10a3.65,3.65,0,0,1,2.52.8,3.11,3.11,0,0,1,.89,2.43V18Zm-2.61.09a3.81,3.81,0,0,1-1.56-.3,2.48,2.48,0,0,1-1-.82,2.18,2.18,0,0,1-.36-1.22,2.32,2.32,0,0,1,.3-1.17,2.19,2.19,0,0,1,1-.84,4.7,4.7,0,0,1,1.89-.32h2.52v1H28.71a2.16,2.16,0,0,0-1.46.36,1.16,1.16,0,0,0-.37.87,1.11,1.11,0,0,0,.46.94,2.06,2.06,0,0,0,1.29.35A2.69,2.69,0,0,0,30,16.62a2,2,0,0,0,.89-1.05l.28,1a2.32,2.32,0,0,1-1,1.13A3.69,3.69,0,0,1,28.39,18.09ZM34.81,18V10.05h1.38v2.16l-.14-.54a2.44,2.44,0,0,1,1.11-1.26A3.89,3.89,0,0,1,39.08,10v1.4l-.18,0h-.15a2.44,2.44,0,0,0-1.83.69,2.76,2.76,0,0,0-.67,2v4Zm9.29.09a4.56,4.56,0,0,1-2.25-.53,3.71,3.71,0,0,1-1.5-1.44A4.14,4.14,0,0,1,39.82,14a4.28,4.28,0,0,1,.51-2.11,3.75,3.75,0,0,1,1.43-1.42,4.25,4.25,0,0,1,4.09,0,3.58,3.58,0,0,1,1.38,1.43,4.35,4.35,0,0,1,.51,2.15,1.62,1.62,0,0,1,0,.21,1.64,1.64,0,0,1,0,.23H41v-1h6l-.58.36a2.66,2.66,0,0,0-.32-1.36,2.35,2.35,0,0,0-.91-.94,2.79,2.79,0,0,0-2.67,0,2.4,2.4,0,0,0-.92,1,2.82,2.82,0,0,0-.33,1.38v.24a2.87,2.87,0,0,0,.36,1.43,2.61,2.61,0,0,0,1,1,3.2,3.2,0,0,0,1.51.34,3.28,3.28,0,0,0,1.28-.24,2.79,2.79,0,0,0,1-.72l.79.93a3.47,3.47,0,0,1-1.35,1A4.59,4.59,0,0,1,44.1,18.09Z"/><path class="cls-2" d="M62.25,19.67a1.77,1.77,0,0,1-1.33-.59,2,2,0,0,1-.54-1.41,2.18,2.18,0,0,1,0-.25,1.42,1.42,0,0,1,0-.22L56,14.47a2.33,2.33,0,0,1-.59.39,1.81,1.81,0,0,1-.69.14,1.76,1.76,0,0,1-1.33-.58,2.14,2.14,0,0,1,0-2.84A1.76,1.76,0,0,1,54.75,11a1.81,1.81,0,0,1,.69.14,2.33,2.33,0,0,1,.59.39L60.44,8.8a1.42,1.42,0,0,1,0-.22,2.18,2.18,0,0,1,0-.25,2,2,0,0,1,.54-1.41,1.79,1.79,0,0,1,2.66,0,2,2,0,0,1,.54,1.41,2,2,0,0,1-.54,1.42,1.76,1.76,0,0,1-1.33.58,1.64,1.64,0,0,1-.69-.14A1.89,1.89,0,0,1,61,9.8l-4.41,2.73a1.32,1.32,0,0,1,0,.23,2.89,2.89,0,0,1,0,.48,1.55,1.55,0,0,1,0,.23L61,16.2a1.89,1.89,0,0,1,.59-.39,1.64,1.64,0,0,1,.69-.14,1.76,1.76,0,0,1,1.33.58,2.12,2.12,0,0,1,0,2.83A1.77,1.77,0,0,1,62.25,19.67Z"/></g></g></svg>