<?xml version="1.0" encoding="UTF-8"?><svg id="Capa_2" xmlns="http://www.w3.org/2000/svg" xmlns:xlink="http://www.w3.org/1999/xlink" viewBox="0 0 397.75 93.27"><defs><style>.cls-1{fill:none;}.cls-2{clip-path:url(#clippath);}.cls-3{fill:#fff;}.cls-4{clip-path:url(#clippath-1);}.cls-5{clip-path:url(#clippath-3);}.cls-6{clip-path:url(#clippath-2);}</style><clipPath id="clippath"><rect class="cls-1" x="382.94" y="15.1" width="14.81" height="20.75"/></clipPath><clipPath id="clippath-1"><rect class="cls-1" x="360.3" y="64.15" width="16.98" height="29.13"/></clipPath><clipPath id="clippath-2"><rect class="cls-1" x="382.94" y="64.15" width="14.81" height="22.64"/></clipPath><clipPath id="clippath-3"><rect class="cls-1" x="22.63" y="79.24" width="71.68" height="14.04"/></clipPath></defs><g id="Capa_1-2"><g id="surface1"><path class="cls-3" d="M148.01,8.09v15.98c0,5.47,1.01,7.45,5.16,7.45s5.05-2.02,5.05-7.49V8.09h5.23v15.7c0,8.26-2.64,11.79-10.47,11.79s-10.2-3.18-10.2-11.44V8.09h5.23"/><path class="cls-3" d="M168.53,15.81h4.22l.31,1.95c2.29-1.44,4.35-2.29,6.83-2.29,4.03,0,5.81,1.9,5.81,6.32v13.26h-5.16v-12.22c0-2.52-.77-3.22-2.4-3.22-1.28,0-2.71,.58-4.46,1.74v13.7h-5.16V15.81"/><path class="cls-3" d="M190.97,15.81h5.16v19.24h-5.16V15.81Zm2.56-3.37c-2.29,0-2.95-.62-2.95-2.79s.66-2.8,2.95-2.8,2.94,.58,2.94,2.8-.62,2.79-2.94,2.79"/><path class="cls-3" d="M202.18,15.81v-5.39l5.15-.7v6.09h4.19v3.84h-4.19v9.2c0,1.97,.59,2.64,1.95,2.64,.81,0,1.51-.12,2.25-.35l.42,3.68c-1.19,.35-2.59,.58-4.22,.58-4.15,0-5.54-1.55-5.54-5.23v-10.52h-2.79v-3.84h2.79"/><path class="cls-3" d="M226.26,23.65c-.04-3.61-.93-4.5-3.22-4.5s-3.34,.93-3.46,4.5h6.68Zm3.68,11.01c-2.13,.46-4.15,.78-6.67,.78-5.7,0-8.89-1.67-8.89-9.9s3.49-10.27,8.81-10.27,7.65,1.82,7.65,8.72c0,.97-.09,1.94-.12,2.94h-11.14c.12,3.93,1.25,4.58,4.62,4.58,1.94,0,3.42-.27,5.35-.66l.39,3.79"/><path class="cls-3" d="M246.38,20.38c-1.08-.62-1.97-.97-3.1-.97-1.97,0-3.84,1.27-3.84,6.12s1.09,5.7,3.02,5.7c1.13,0,2.29-.58,3.92-1.7v-9.16Zm.63,12.76c-1.98,1.33-3.77,2.25-6.09,2.25-4.04,0-6.64-2.25-6.64-9.7s3.57-10.24,8.11-10.24c1.55,0,2.91,.35,4.19,1.01l.04-.04c-.16-1.39-.24-2.59-.24-3.95V6.42h5.16v28.63h-4.23l-.3-1.91"/><path class="cls-3" d="M267.82,8.09h6.67l7.37,14.19c1.25,2.41,2.17,4.54,3.3,7.21h.08c-.32-2.71-.47-5.12-.47-7.21V8.09h4.54v26.95h-6.71l-7.33-14.19c-1.2-2.41-2.21-4.54-3.26-7.21h-.07c.24,2.67,.43,5.11,.43,7.21v14.19h-4.54V8.09"/><path class="cls-3" d="M305.97,20.38c-1.09-.62-1.97-.97-3.1-.97-1.97,0-3.84,1.27-3.84,6.12s1.08,5.7,3.02,5.7c1.13,0,2.29-.58,3.92-1.7v-9.16Zm.62,12.76c-1.97,1.33-3.77,2.25-6.09,2.25-4.04,0-6.64-2.25-6.64-9.7s3.57-10.24,8.11-10.24c1.86,0,3.18,.46,4.73,1.28l.19-.94h4.23v19.24h-4.23l-.31-1.91"/><path class="cls-3" d="M317.22,15.81v-5.39l5.15-.7v6.09h4.19v3.84h-4.19v9.2c0,1.97,.58,2.64,1.95,2.64,.81,0,1.51-.12,2.24-.35l.43,3.68c-1.21,.35-2.6,.58-4.23,.58-4.16,0-5.54-1.55-5.54-5.23v-10.52h-2.8v-3.84h2.8"/><path class="cls-3" d="M330.51,15.81h5.15v19.24h-5.15V15.81Zm2.56-3.37c-2.28,0-2.95-.62-2.95-2.79s.66-2.8,2.95-2.8,2.95,.58,2.95,2.8-.62,2.79-2.95,2.79"/><path class="cls-3" d="M349.01,19.18c-2.61,0-3.69,1.13-3.69,6.2s1.08,6.29,3.69,6.29,3.72-1.13,3.72-6.25-1.13-6.24-3.72-6.24Zm-.09,16.4c-5.7,0-8.8-2.09-8.8-10.04s3.33-10.27,8.96-10.27,8.84,2.01,8.84,10.04-3.37,10.27-9,10.27"/><path class="cls-3" d="M362.42,15.81h4.23l.3,1.95c2.3-1.44,4.35-2.29,6.83-2.29,4.04,0,5.81,1.9,5.81,6.32v13.26h-5.15v-12.22c0-2.52-.78-3.22-2.41-3.22-1.27,0-2.71,.58-4.46,1.74v13.7h-5.16V15.81"/><g class="cls-2"><path class="cls-3" d="M384.17,30.93c1.94,.46,3.6,.74,5.12,.74,2.32,0,3.4-.66,3.4-1.9,0-1.16-.77-1.51-4.02-2.84-3.57-1.47-4.97-2.59-4.97-5.62,0-3.95,2.67-5.9,8.1-5.9,1.67,0,3.37,.28,4.66,.63l-.5,3.72c-1.4-.35-2.87-.58-4.35-.58-2.02,0-3.14,.51-3.14,1.75,0,.93,.73,1.36,3.77,2.56,3.79,1.52,5.27,2.6,5.27,5.93,0,3.85-2.4,6.02-8.45,6.02-1.94,0-3.57-.28-5.35-.74l.46-3.77"/></g><path class="cls-3" d="M159.22,84.11c-1.7,.47-3.79,.86-5.9,.86-6.82,0-10.12-2.25-10.12-13.81s3.72-13.92,10.35-13.92c2.09,0,4.11,.3,5.66,.77l-.31,1.83c-1.51-.43-3.49-.74-5.31-.74-5.19,0-8.06,1.82-8.06,11.94s2.63,12.06,8.06,12.06c1.75,0,3.73-.39,5.31-.82l.31,1.82"/><path class="cls-3" d="M164.38,55.96h2.28v28.63h-2.28v-28.63"/><path class="cls-3" d="M174.07,65.66h2.28v18.93h-2.28v-18.93Zm1.13-4.8c-1.32,0-1.67-.35-1.67-1.63s.35-1.59,1.67-1.59,1.63,.35,1.63,1.59-.35,1.63-1.63,1.63"/><path class="cls-3" d="M182.99,65.66h1.9l.15,2.09c2.45-1.43,4.81-2.48,7.1-2.48,2.76,0,4.03,1.24,4.77,2.71,2.84-1.7,5.2-2.71,7.49-2.71,3.61,0,5.39,1.82,5.39,6.24v13.07h-2.28v-12.76c0-3.45-1.2-4.69-3.6-4.69-1.78,0-3.8,.9-6.56,2.56,.12,.62,.2,1.05,.2,2.01v12.88h-2.29v-12.76c0-3.45-1.24-4.69-3.6-4.69-1.78,0-3.8,.9-6.36,2.45v15.01h-2.29v-18.93"/><path class="cls-3" d="M228.54,68.65c-1.7-.97-3.1-1.55-4.84-1.55-2.95,0-5.86,1.67-5.86,8.11s1.83,7.88,4.89,7.88c1.67,0,3.45-.85,5.81-2.37v-12.06Zm.21,13.92c-2.18,1.36-4.23,2.41-6.48,2.41-4.19,0-6.71-2.1-6.71-9.66s3.84-10.04,8.02-10.04c1.95,0,3.53,.62,5.24,1.51l.11-1.13h1.91v18.93h-1.91l-.18-2.02"/><path class="cls-3" d="M238.47,65.66v-5.78l2.28-.35v6.12h4.46v1.78h-4.46v12.95c0,2.02,.66,2.64,2.14,2.64,.85,0,1.58-.11,2.32-.35l.24,1.7c-.88,.27-1.86,.51-2.98,.51-2.91,0-3.99-1.16-3.99-3.96v-13.5h-2.95v-1.78h2.95"/><path class="cls-3" d="M261.38,73.72c-.07-5.62-1.5-6.78-4.72-6.78s-5.12,1.31-5.32,6.78h10.04Zm1.21,10.47c-1.86,.43-3.77,.74-5.78,.74-4.74,0-7.8-1.44-7.8-9.78s3.07-10.04,7.8-10.04,6.74,1.83,6.74,8.88c0,.46,0,.81-.04,1.39h-12.21c.07,6.79,2.09,7.72,5.98,7.72,1.86,0,3.37-.27,5.08-.7l.24,1.78"/><path class="cls-3" d="M292.67,84.11c-1.71,.47-3.79,.86-5.89,.86-6.83,0-10.12-2.25-10.12-13.81s3.72-13.92,10.35-13.92c2.09,0,4.11,.3,5.66,.77l-.31,1.83c-1.51-.43-3.49-.74-5.31-.74-5.2,0-8.07,1.82-8.07,11.94s2.63,12.06,8.07,12.06c1.75,0,3.72-.39,5.31-.82l.31,1.82"/><path class="cls-3" d="M297.83,55.96h2.28v6.79c0,1.47-.07,3.07-.15,4.89l.04,.04c2.33-1.36,4.86-2.4,7.34-2.4,3.91,0,5.74,1.82,5.74,6.24v13.07h-2.3v-12.76c0-3.45-1.24-4.69-3.95-4.69-1.97,0-4.15,.9-6.71,2.45v15.01h-2.28v-28.63"/><path class="cls-3" d="M331.79,68.65c-1.7-.97-3.1-1.55-4.85-1.55-2.94,0-5.86,1.67-5.86,8.11s1.83,7.88,4.89,7.88c1.67,0,3.45-.85,5.81-2.37v-12.06Zm.2,13.92c-2.17,1.36-4.23,2.41-6.48,2.41-4.19,0-6.71-2.1-6.71-9.66s3.83-10.04,8.02-10.04c1.93,0,3.52,.62,5.23,1.51l.12-1.13h1.9v18.93h-1.9l-.19-2.02"/><path class="cls-3" d="M340.74,65.66h1.9l.16,2.09c2.44-1.43,4.96-2.48,7.44-2.48,3.91,0,5.74,1.82,5.74,6.24v13.07h-2.29v-12.76c0-3.45-1.24-4.69-3.96-4.69-1.97,0-4.15,.9-6.71,2.45v15.01h-2.29v-18.93"/><g class="cls-4"><path class="cls-3" d="M374.71,68.65c-1.71-.97-3.1-1.55-4.85-1.55-2.95,0-5.86,1.67-5.86,8.11s1.82,7.88,4.89,7.88c1.66,0,3.45-.85,5.81-2.37v-12.06Zm2.28,16.95c0,5.46-2.64,7.68-8.26,7.68-2.25,0-3.88-.27-5.7-.66l.28-1.78c1.78,.35,3.4,.58,5.46,.58,4.19,0,5.94-1.51,5.94-5.67v-2.98l-.04-.04c-2.05,1.28-4.03,2.25-6.25,2.25-4.19,0-6.7-2.1-6.7-9.66s3.83-10.04,8.02-10.04c1.94,0,3.52,.62,5.23,1.51l.13-1.13h1.89v19.94"/></g><g class="cls-6"><path class="cls-3" d="M395.57,73.72c-.07-5.62-1.52-6.78-4.73-6.78s-5.12,1.31-5.31,6.78h10.04Zm1.2,10.47c-1.86,.43-3.76,.74-5.78,.74-4.73,0-7.79-1.44-7.79-9.78s3.06-10.04,7.79-10.04,6.75,1.83,6.75,8.88c0,.46,0,.81-.04,1.39h-12.22c.09,6.79,2.1,7.72,5.98,7.72,1.86,0,3.37-.27,5.08-.7l.24,1.78"/></g><g class="cls-5"><path class="cls-3" d="M79.9,84.31c-5.89-2.56-11.98-5.79-19.07-4.24-.75,.01-1.42,.44-2.16,.49-.73-.04-1.39-.47-2.15-.49-7.08-1.55-13.18,1.69-19.06,4.24-4.38,1.72-10.12,1.45-13.96-1.21,1.9,2.39,4.44,3.87,7.08,4.87,4.89,1.95,10.71,.63,14.77-2.21,3.47-1.95,6.46-5.8,11.04-4.35-4.66,2.17-8.91,5.21-12.76,9.11l2.41,2c2.81-3.76,6.54-6.84,10.32-9.23,.82-.44,1.44-.94,2.33-1.05,.9,.12,1.52,.61,2.34,1.05,3.77,2.39,7.5,5.47,10.31,9.23l2.41-2c-3.85-3.9-8.11-6.94-12.76-9.11,4.58-1.45,7.56,2.39,11.03,4.35,4.05,2.84,9.87,4.16,14.77,2.21,2.63-1,5.17-2.48,7.08-4.87-3.85,2.66-9.59,2.93-13.96,1.21"/></g><path class="cls-3" d="M14.59,25.65c.91-2.01,1.58-4.2,1.85-6.38-.36,.93-.98,1.74-1.69,2.52-3.31,3.01-7.08,6.12-7.8,10.48-.13,.62-.16,1.27-.35,1.87-.14,.06-.14-.1-.2-.15l.4-5.41c.15-5.28-2.38-11.14,.66-15.79-.1-.01-.15,.07-.24,.1-2.77,3.54-4.74,7.43-4.61,12.17-.38,5.85,3.37,9.98,3.79,15.49,.86-5.76,5.62-9.87,8.19-14.91"/><path class="cls-3" d="M17.88,68.27c-.57-1.42-1.42-2.76-1.85-4.24-1.62-6.82-.74-14.66-3.65-20.96,.54,3.58-.88,6.74-1.21,10.14-.28,2.79,.14,5.55,1.31,7.86,.24,.73,.91,1.33,1.06,2.03-1.05-.94-1.72-2.2-2.51-3.32C7.72,54.28,.59,50.76,.1,44.09c-.24,2.95-.12,6.15,1,8.73,2.65,7.48,10.8,11.36,16.78,15.44"/><path class="cls-3" d="M8.05,26.71c.96-1.99,2.67-3.76,4.44-5.31,4.27-3.02,8.75-7.24,8.81-12.62-1.39,3.86-5.56,5.49-8.39,8.11-1.44,1.42-2.61,3.07-3.27,4.82l-.1-.07c.34-1.55,1.05-2.94,1.45-4.45,1.26-4.08,.99-8.99,4.97-11.72-2.05,.52-3.88,1.77-5.31,3.56-3.31,3.48-2.97,8.83-2.51,13.52,.1,1.44-.2,2.81-.1,4.16"/><path class="cls-3" d="M9.15,54.9l.3,.24c-.32-2.2-.48-4.58,.14-6.66,.94-3.36,2.03-6.64,2.76-10.1,.38-2.72,1.05-5.73,.71-8.35-.36,1.41-.78,2.78-1.5,4-2.99,4.52-5.96,9.9-3.89,15.69-.06,.07-.13,.14-.21,.1-.82-1.9-.97-4.1-1.54-6.13-1.39-5.45-5.6-9.98-4.38-16.25-.64,1.36-.9,2.9-1.24,4.38-.73,3.84-.03,7.93,1.05,11.44,1.27,4.42,5.62,7.58,7.8,11.63"/><path class="cls-3" d="M12.91,15.07c2.23-2.09,4.73-3.7,6.7-6.14,2.19-3.05,4.24-6.34,7.19-8.93-4.02,1.58-8.51,3.07-10.94,7.3-1.71,2.3-1.75,5.27-2.95,7.77"/><path class="cls-3" d="M110.54,28.58l.4,5.41c-.06,.04-.06,.21-.2,.15-.18-.6-.22-1.25-.34-1.87-.72-4.36-4.5-7.46-7.81-10.48-.7-.78-1.32-1.59-1.68-2.52,.26,2.18,.94,4.37,1.84,6.38,2.57,5.03,7.32,9.14,8.19,14.91,.42-5.51,4.18-9.64,3.79-15.49,.12-4.75-1.85-8.64-4.62-12.17-.07-.04-.13-.12-.24-.1,3.04,4.65,.52,10.51,.66,15.79"/><path class="cls-3" d="M111.42,43.69c-.58,2.03-.72,4.23-1.54,6.13-.07,.04-.14-.03-.2-.1,2.06-5.79-.91-11.16-3.89-15.69-.73-1.22-1.15-2.59-1.51-4-.32,2.62,.34,5.63,.72,8.35,.72,3.46,1.81,6.74,2.74,10.1,.63,2.09,.46,4.47,.15,6.66l.3-.24c2.19-4.05,6.52-7.21,7.81-11.63,1.06-3.51,1.76-7.6,1.04-11.44-.34-1.49-.6-3.02-1.24-4.38,1.22,6.27-3,10.8-4.38,16.25"/><path class="cls-3" d="M106.37,17.2c.41,1.51,1.11,2.9,1.45,4.45l-.1,.07c-.66-1.75-1.83-3.4-3.27-4.82-2.83-2.62-7.01-4.25-8.39-8.11,.07,5.37,4.54,9.59,8.81,12.62,1.77,1.55,3.47,3.32,4.43,5.31,.11-1.36-.19-2.72-.1-4.16,.46-4.69,.8-10.04-2.51-13.52-1.42-1.79-3.25-3.04-5.3-3.56,3.96,2.74,3.71,7.64,4.97,11.72"/><path class="cls-3" d="M97.74,8.93c1.97,2.44,4.47,4.05,6.71,6.14-1.21-2.5-1.25-5.47-2.95-7.77-2.42-4.24-6.93-5.73-10.94-7.3,2.95,2.59,5,5.88,7.18,8.93"/><path class="cls-3" d="M96.4,72.18c-.85,.76-1.75,1.43-2.7,1.95v-.02c-.19,.11-.38,.21-.57,.3l-.06-.06c.08-.08,.17-.16,.26-.23h0c1.22-1.12,2.57-2.37,3.41-3.78,3.27-4.57,2.13-10.96,4.57-15.86-2.22,2.67-4.24,5.45-5.59,8.49-1.5,3.7-2.31,7.76-4.55,11.13h0c-.76,1.14-1.68,2.2-2.85,3.15,4.28-1.4,9.2-1.27,13.29-3.13,.7-.32,1.38-.69,2.03-1.15,4.83-2.98,9.15-8.02,10.06-13.57-3.34,7.56-11.68,8.19-17.28,12.79"/><path class="cls-3" d="M117.25,44.09c-.49,6.66-7.63,10.18-10.94,15.69-.78,1.13-1.46,2.38-2.51,3.32,.15-.71,.82-1.3,1.06-2.03,1.16-2.31,1.58-5.07,1.3-7.86-.32-3.4-1.75-6.56-1.2-10.14-2.91,6.29-2.03,14.14-3.66,20.96-.42,1.49-1.27,2.82-1.84,4.24,5.98-4.08,14.13-7.97,16.78-15.44,1.13-2.58,1.25-5.78,1.01-8.73"/><path class="cls-3" d="M83.91,79.13c-1.01,.14-1.93,.55-3,.38,.85-.54,2.03-.48,2.96-.96,2.44-.87,3.97-2.52,5.18-4.44h0c1.54-2.48,2.54-5.39,4.24-7.69-3.2,2.14-5.98,4.88-8.86,7.66h0c-.61,.59-1.22,1.17-1.84,1.75-2.56,2.26-5.66,3.3-8.91,3.97,.79,.28,1.81,.2,2.65,.42,5.84,1.44,12.34,3.79,18.54,1.69,3.82-1.19,7.77-4.13,9.88-7.83,.12-.21,.23-.41,.34-.62-.19,.21-.38,.43-.57,.62-5.39,5.32-13.75,3.5-20.62,5.03"/><path class="cls-3" d="M41,80.25c.84-.22,1.86-.14,2.65-.42-3.26-.67-6.35-1.71-8.92-3.97-.62-.58-1.23-1.16-1.83-1.75h0c-2.89-2.79-5.67-5.53-8.86-7.67,1.7,2.3,2.7,5.21,4.25,7.67h0c1.2,1.93,2.73,3.58,5.18,4.45,.92,.48,2.11,.42,2.95,.96-1.06,.16-1.99-.24-2.99-.38-6.88-1.53-15.24,.31-20.62-5.03-.19-.19-.39-.41-.57-.62,.11,.21,.21,.41,.34,.62,2.12,3.69,6.05,6.63,9.87,7.83,6.2,2.11,12.7-.24,18.55-1.69"/><path class="cls-3" d="M15.75,74.11c4.1,1.86,9,1.73,13.29,3.13-1.16-.94-2.09-2-2.85-3.13h0c-2.25-3.38-3.05-7.44-4.55-11.14-1.34-3.04-3.37-5.81-5.6-8.49,2.45,4.91,1.31,11.3,4.58,15.86,.85,1.41,2.2,2.66,3.42,3.77h0c.08,.08,.18,.16,.26,.24l-.06,.06c-.19-.09-.38-.19-.57-.3l.03,.02c-.95-.52-1.87-1.19-2.73-1.95-5.59-4.61-13.94-5.23-17.28-12.79,.91,5.55,5.22,10.6,10.06,13.57,.65,.46,1.33,.83,2.03,1.15"/><path class="cls-3" d="M58.67,71.53c14.02,0,26.11-8.26,31.68-20.18l-7.92-3.69c-4.17,8.94-13.23,15.14-23.75,15.14-14.47,0-26.21-11.73-26.21-26.2s11.74-26.21,26.21-26.21c10.52,0,19.58,6.2,23.75,15.14l7.92-3.69C84.78,9.91,72.69,1.65,58.67,1.65c-19.29,0-34.94,15.64-34.94,34.94s15.64,34.94,34.94,34.94"/><path class="cls-3" d="M58.67,25.23c3.85,0,7.25,1.92,9.31,4.85l6.44-4.51c-3.47-4.96-9.23-8.19-15.74-8.19-10.62,0-19.23,8.6-19.23,19.22s8.61,19.21,19.23,19.21c6.51,0,12.27-3.24,15.74-8.19l-6.44-4.51c-2.05,2.93-5.45,4.85-9.31,4.85-6.27,0-11.35-5.08-11.35-11.36s5.08-11.36,11.35-11.36"/></g></g></svg>